<?xml version="1.0" standalone="no"?>
<!DOCTYPE svg PUBLIC "-//W3C//DTD SVG 20010904//EN"
 "http://www.w3.org/TR/2001/REC-SVG-20010904/DTD/svg10.dtd">
<svg version="1.0" xmlns="http://www.w3.org/2000/svg"
 width="260.000000pt" height="260.000000pt" viewBox="0 0 260.000000 260.000000"
 preserveAspectRatio="xMidYMid meet">
<metadata>
Created by potrace 1.14, written by Peter Selinger 2001-2017
</metadata>
<g transform="translate(0.000000,260.000000) scale(0.100000,-0.100000)"
fill="#000000" stroke="none">
<path d="M0 1300 l0 -1300 1300 0 1300 0 0 1300 0 1300 -1300 0 -1300 0 0
-1300z m360 740 c0 -5 -5 -10 -11 -10 -5 0 -7 5 -4 10 3 6 8 10 11 10 2 0 4
-4 4 -10z m1204 -50 c27 -5 51 -12 53 -14 2 -1 -12 -75 -32 -164 -19 -88 -35
-165 -35 -171 0 -5 17 -13 38 -16 202 -35 339 -120 404 -253 32 -64 33 -71 32
-187 0 -94 -5 -132 -21 -177 -62 -176 -211 -319 -393 -378 -36 -11 -114 -25
-173 -29 -60 -5 -110 -11 -111 -13 -2 -1 -11 -46 -22 -98 l-19 -95 -146 -3
-146 -3 18 83 c28 126 27 128 -26 128 -171 0 -319 90 -388 238 -27 58 -32 80
-35 168 -5 117 7 187 47 271 85 178 297 299 612 348 l36 5 23 108 c43 200 42
182 5 182 -61 0 -198 -31 -247 -56 -71 -36 -91 -72 -84 -158 l5 -69 -53 6
c-98 10 -146 54 -146 132 0 110 113 182 345 221 90 15 376 11 459 -6z"/>
<path d="M1108 1486 c-127 -55 -197 -129 -240 -255 -20 -57 -23 -86 -23 -206
0 -133 1 -143 28 -197 32 -66 85 -114 141 -129 21 -6 39 -9 41 -7 3 3 175 813
175 823 0 14 -54 1 -122 -29z"/>
<path d="M1507 1443 c-9 -43 -48 -226 -87 -407 -38 -182 -70 -334 -70 -339 0
-6 20 -7 48 -4 199 24 363 250 366 507 1 155 -42 242 -146 294 -85 42 -92 39
-111 -51z"/>
</g>
</svg>
